{"title":"Unlocking The Turth - Season 01E03 [1080p] WEB-DL","uid":15759047,"size":1667290757,"categoryP":"video","categoryS":"hd___tv_shows","magnet":"?xt=urn:btih:0a584a800d92e5a9b56f55b83a42c8831b3a53f6&amp;dn=Unlocking+The+Turth+-+Season+01E03+%5B1080p%5D+WEB-DL+&amp;tr=udp%3A%2F%2Ftracker.leechers-paradise.org%3A6969&amp;tr=udp%3A%2F%2Fzer0day.ch%3A1337&amp;tr=udp%3A%2F%2Fopen.demonii.com%3A1337&amp;tr=udp%3A%2F%2Ftracker.coppersurfer.tk%3A6969&amp;tr=udp%3A%2F%2Fexodus.desync.com%3A6969","seeders":1,"leechers":0,"uploader":"fjn61783","files":2,"time":1473087876,"description":"Unlocking The Turth - Season 01E03 [1080p] WEB-DL \r\n\r\n*Folder includes English .srt files (subtitles) \r\n\r\nFormat : Matroska \r\nFormat version : Version 4 / Version 2 \r\nFile size : 1.55 GiB \r\nDuration : 41 min \r\nOverall bit rate : 5 331 kb/s \r\n\r\nVideo \r\nID : 2 \r\nFormat : AVC \r\nFormat/Info : Advanced Video Codec \r\nFormat profile :    \r\nFormat settings, CABAC : Yes \r\nFormat settings, ReFrames : 4 frames \r\nCodec ID : V_MPEG4/ISO/AVC \r\nDuration : 41 min \r\nBit rate : 5 177 kb/s \r\nWidth : 1 916 pixels \r\nHeight : 1 076 pixels \r\nDisplay aspect ratio : 16:9 \r\nFrame rate mode : Constant \r\nFrame rate : 23.976 (24000/1001) FPS \r\nColor space : YUV \r\nChroma subsampling : 4:2:0 \r\nBit depth : 8 bits \r\nScan type : Progressive \r\nBits/(Pixel*Frame) : 0.105 \r\nStream size : 1.51 GiB (97%) \r\nLanguage : English \r\nDefault : Yes \r\nForced : No \r\n\r\nAudio \r\nID : 1 \r\nFormat : AAC \r\nFormat/Info : Advanced Audio Codec \r\nFormat profile : LC \r\nCodec ID : A_AAC \r\nDuration : 41 min \r\nBit rate : 151 kb/s \r\nChannel(s) : 2 channels \r\nChannel positions : Front: L R \r\nSampling rate : 48.0 kHz \r\nFrame rate : 46.875 FPS (1024 spf) \r\nCompression mode : Lossy \r\nStream size : 45.2 MiB (3%) \r\nLanguage : English \r\nDefault : Yes \r\nForced : No","torrent":{"xt":"urn:btih:0a584a800d92e5a9b56f55b83a42c8831b3a53f6","amp;dn":"Unlocking+The+Turth+-+Season+01E03+%5B1080p%5D+WEB-DL+","amp;tr":["udp%3A%2F%2Ftracker.leechers-paradise.org%3A6969","udp%3A%2F%2Fzer0day.ch%3A1337","udp%3A%2F%2Fopen.demonii.com%3A1337","udp%3A%2F%2Ftracker.coppersurfer.tk%3A6969","udp%3A%2F%2Fexodus.desync.com%3A6969"],"infoHash":"0a584a800d92e5a9b56f55b83a42c8831b3a53f6","infoHashBuffer":{"type":"Buffer","data":[10,88,74,128,13,146,229,169,181,111,85,184,58,66,200,131,27,58,83,246]},"announce":[],"urlList":[]}}